<svg xmlns="http://www.w3.org/2000/svg" xmlns:xlink="http://www.w3.org/1999/xlink" viewBox="0 0 192.32 189.41"><defs><style>.cls-1{fill:url(#Fading_Sky);}.cls-2{fill:#21409a;}.cls-3{fill:url(#Fading_Sky-2);}.cls-4{fill:#fff;}.cls-5{fill:url(#Fading_Sky-3);}.cls-6{fill:url(#Fading_Sky-4);}.cls-7{fill:#f1f2f2;}.cls-8{fill:url(#Fading_Sky-5);}.cls-9{opacity:0.5;}.cls-10{opacity:0.25;}.cls-11{opacity:0.1;}.cls-12{opacity:0.6;}.cls-13{fill:url(#Fading_Sky-6);}.cls-14{fill:url(#Fading_Sky-7);}.cls-15{opacity:0.8;}.cls-16{fill:url(#Fading_Sky-8);}</style><linearGradient id="Fading_Sky" x1="149.03" y1="156.94" x2="160.68" y2="156.94" gradientTransform="translate(88.06 -53.18) rotate(26.98)" gradientUnits="userSpaceOnUse"><stop offset="0" stop-color="#2484c6"/><stop offset="1" stop-color="#2484c6" stop-opacity="0"/></linearGradient><linearGradient id="Fading_Sky-2" x1="111.38" y1="91.34" x2="136.66" y2="91.34" gradientTransform="matrix(1, 0, 0, 1, 0, 0)" xlink:href="#Fading_Sky"/><linearGradient id="Fading_Sky-3" x1="85.89" y1="137.28" x2="177.68" y2="137.28" gradientTransform="matrix(1, 0, 0, 1, 0, 0)" xlink:href="#Fading_Sky"/><linearGradient id="Fading_Sky-4" x1="102.9" y1="130.37" x2="143.48" y2="130.37" gradientTransform="matrix(1, 0, 0, 1, 0, 0)" xlink:href="#Fading_Sky"/><linearGradient id="Fading_Sky-5" x1="146.46" y1="122.91" x2="158.88" y2="122.91" gradientTransform="matrix(1, 0, 0, 1, 0, 0)" xlink:href="#Fading_Sky"/><linearGradient id="Fading_Sky-6" x1="176.68" y1="141.28" x2="192.27" y2="141.28" gradientTransform="matrix(1, 0, 0, 1, 0, 0)" xlink:href="#Fading_Sky"/><linearGradient id="Fading_Sky-7" x1="118.05" y1="184.43" x2="132.3" y2="184.43" gradientTransform="matrix(1, 0, 0, 1, 0, 0)" xlink:href="#Fading_Sky"/><linearGradient id="Fading_Sky-8" x1="56.8" y1="141.81" x2="113.71" y2="141.81" gradientTransform="matrix(1, 0, 0, 1, 0, 0)" xlink:href="#Fading_Sky"/></defs><title>paxxageAsset 9</title><g id="Layer_2" data-name="Layer 2"><g id="Layer_1-2" data-name="Layer 1"><ellipse class="cls-1" cx="154.85" cy="156.94" rx="5.73" ry="6.2" transform="translate(-54.35 87.34) rotate(-26.98)"/><path class="cls-2" d="M149.8,159.52a6.09,6.09,0,0,0,3.36,3,5.47,5.47,0,0,0,4.4-.3,5.25,5.25,0,0,0,2.61-3.43,6.15,6.15,0,0,0-.57-4.29,6.06,6.06,0,0,0-3.2-2.83,5.24,5.24,0,0,0-4.13.16,5.43,5.43,0,0,0-2.78,3.2A5.87,5.87,0,0,0,149.8,159.52Zm-.09,0a7.13,7.13,0,0,1-.74-4.64,5.61,5.61,0,0,1,2.84-3.95,5.84,5.84,0,0,1,4.95-.19,7,7,0,0,1,3.55,3.38,6.83,6.83,0,0,1,.48,4.82,5.79,5.79,0,0,1-3,3.72,5.61,5.61,0,0,1-4.69,0A6.92,6.92,0,0,1,149.71,159.56Z"/><path class="cls-3" d="M111.38,91.84s1.81-26.13,3.44-27.28c3.6-2.53,29.67,41.43,19.49,53.65C133.74,118.9,111.38,91.84,111.38,91.84Z"/><path class="cls-4" d="M111.33,91.86c.33-5.16.73-10.25,1.23-15.38.25-2.55.52-5.11.91-7.65a22.56,22.56,0,0,1,.82-3.81,2,2,0,0,1,.25-.48.72.72,0,0,1,.56-.31,1.81,1.81,0,0,1,1,.33,8.54,8.54,0,0,1,1.52,1.27A44.32,44.32,0,0,1,122.39,72c1.42,2.15,2.75,4.36,4,6.61a114.1,114.1,0,0,1,6.62,14,60,60,0,0,1,4,15,19.63,19.63,0,0,1-.6,7.83,10,10,0,0,1-.79,1.85,9.54,9.54,0,0,1-.54.86l-.31.41-.08.1s0,0-.15.13a.59.59,0,0,1-.35.07.7.7,0,0,1-.19-.06,1.27,1.27,0,0,1-.3-.2,31.51,31.51,0,0,1-2.75-2.81C124.17,107.9,117.7,100,111.33,91.86Zm.1,0C118.2,99.5,124.82,107.4,131.7,115a33.69,33.69,0,0,0,2.62,2.7l.09.07-.07,0a.45.45,0,0,0-.3.06c-.11.08-.13.13-.1.09l.07-.09.27-.36c.17-.24.33-.5.48-.76a10,10,0,0,0,.72-1.68,18.7,18.7,0,0,0,.55-7.43,58.68,58.68,0,0,0-3.77-14.76,113.88,113.88,0,0,0-6.44-13.92c-1.22-2.25-2.52-4.46-3.91-6.6a44,44,0,0,0-4.61-6.1A8.51,8.51,0,0,0,115.89,65a1.53,1.53,0,0,0-.75-.27c-.22,0-.3.21-.44.5a23.42,23.42,0,0,0-.84,3.7c-.41,2.53-.72,5.08-1,7.63C112.29,81.61,111.84,86.75,111.43,91.83Z"/><path class="cls-5" d="M162.91,106.06a49.75,49.75,0,0,0-30.74-14.59c4.25,10.65,6.47,21.56,2.14,26.74-.47.58-16-18-21.22-24.3a41.05,41.05,0,0,0-15,9.55c-17.19,17.2-16,46.23,2.59,64.86s47.67,19.79,64.86,2.59S181.54,124.68,162.91,106.06Z"/><path class="cls-2" d="M162.84,106.13a51.21,51.21,0,0,0-14.07-10,47.61,47.61,0,0,0-16.62-4.51l.18-.23a66.62,66.62,0,0,1,4.25,14.45,25.08,25.08,0,0,1,.13,7.59,12.1,12.1,0,0,1-1.24,3.66,4.72,4.72,0,0,1-.52.82l-.28.4-.07.1a.44.44,0,0,1-.15.12.32.32,0,0,1-.22,0,.38.38,0,0,1-.17,0,1.27,1.27,0,0,1-.27-.17,17.87,17.87,0,0,1-1.4-1.33c-3.46-3.67-6.71-7.48-10-11.28s-6.5-7.65-9.72-11.5l.61.17a40.74,40.74,0,0,0-12.39,7.25,40.18,40.18,0,0,0-9,11.13,41.4,41.4,0,0,0-4.69,13.53,47.16,47.16,0,0,0,.06,14.33,46.06,46.06,0,0,0,4.4,13.64,54.94,54.94,0,0,0,3.62,6.21l2.18,2.87.54.71c.19.23.4.45.6.67l1.22,1.32,1.22,1.33a16.87,16.87,0,0,0,1.31,1.22c.89.8,1.76,1.63,2.68,2.4l2.88,2.14.72.54.76.47,1.54.93a47.09,47.09,0,0,0,13.18,5.5,48.42,48.42,0,0,0,14.19,1.33,42.22,42.22,0,0,0,13.83-3.26,39.27,39.27,0,0,0,11.93-7.7,42.32,42.32,0,0,0,8.57-11.38,42.82,42.82,0,0,0,4.15-13.7,43.87,43.87,0,0,0-.46-14.41,48.59,48.59,0,0,0-4.83-13.66A56.19,56.19,0,0,0,162.84,106.13ZM163,106a56.89,56.89,0,0,1,8.87,11.64l1.65,3.28a13.12,13.12,0,0,1,.73,1.68l.67,1.71c.22.58.48,1.13.67,1.72l.52,1.76a29.14,29.14,0,0,1,.94,3.56,44.75,44.75,0,0,1,.88,14.69A44.06,44.06,0,0,1,174,160.3a43.25,43.25,0,0,1-8.72,12,39.29,39.29,0,0,1-12.41,8.22A44.21,44.21,0,0,1,138.42,184a49.28,49.28,0,0,1-14.82-1.45,48.47,48.47,0,0,1-13.67-5.82l-1.58-1-.79-.5-.74-.56-3-2.25c-.94-.81-1.83-1.67-2.75-2.51a18,18,0,0,1-1.34-1.28l-1.25-1.38-1.25-1.38c-.2-.23-.42-.46-.61-.7l-.56-.74-2.22-3A55.08,55.08,0,0,1,90.19,155,48.24,48.24,0,0,1,85.8,126.1a42.41,42.41,0,0,1,4.94-13.93,41.62,41.62,0,0,1,9.37-11.42,42.1,42.1,0,0,1,12.79-7.36l.37-.13.24.3,9.62,11.57c3.22,3.83,6.43,7.7,9.81,11.38a17.37,17.37,0,0,0,1.3,1.28l.12.09-.06,0a.62.62,0,0,0-.16,0c-.08,0-.12.12-.1.08l.07-.09.26-.36a5.47,5.47,0,0,0,.49-.76,11.34,11.34,0,0,0,1.21-3.42,24.48,24.48,0,0,0,0-7.4,65.61,65.61,0,0,0-4-14.41l-.11-.26.28,0A49.68,49.68,0,0,1,148.86,96,51.38,51.38,0,0,1,163,106Z"/><path class="cls-6" d="M102.9,110.65a200.27,200.27,0,0,0,14.9,17.19,200,200,0,0,0,25.68,22.25"/><path class="cls-7" d="M103,110.56c3.08,3.59,6.21,7.13,9.5,10.51s6.62,6.72,10.1,9.89,7.21,6,10.65,9.23,7,6.33,10.3,9.77l-.17.25a71.64,71.64,0,0,1-12.06-7.72A98.33,98.33,0,0,1,121,132.68c-3.32-3.42-6.5-7-9.55-10.61s-5.92-7.44-8.62-11.33Z"/><path class="cls-8" d="M146.46,102.62a49.77,49.77,0,0,1,11.93,25.45,48.05,48.05,0,0,1-.23,15.14"/><path class="cls-4" d="M146.54,102.56a52.48,52.48,0,0,1,6.64,8.73,49.88,49.88,0,0,1,4.55,10.07,38.6,38.6,0,0,1,2.08,10.91,33.14,33.14,0,0,1-1.55,10.95l-.2,0a96.91,96.91,0,0,0-.25-10.81c-.17-1.77-.31-3.55-.6-5.31a41.34,41.34,0,0,0-1-5.26,48.78,48.78,0,0,0-3.89-10,52.5,52.5,0,0,0-5.92-9.09Z"/><g id="Portal" class="cls-9"><path class="cls-2" d="M1.47,59.28a57.77,57.77,0,0,0,4.36,22A56.93,56.93,0,1,0,58.94,3,57.11,57.11,0,0,0,6,37.34,56.38,56.38,0,0,0,1.47,59.28Zm-.3,0A59.59,59.59,0,0,1,17.6,17.89,58.15,58.15,0,0,1,36.39,4.76a57.77,57.77,0,0,1,45.23-.3A58.91,58.91,0,0,1,58.94,117.82a58,58,0,0,1-41-17.48A59,59,0,0,1,1.17,59.28Z"/></g><g id="Portal-2" data-name="Portal" class="cls-10"><path class="cls-2" d="M1.42,39.21A37.85,37.85,0,0,0,4.27,53.58,37.12,37.12,0,1,0,72.84,25.14,37,37,0,0,0,38.92,2.5,37.19,37.19,0,0,0,4.41,24.89,37.81,37.81,0,0,0,1.42,39.21Zm-.2,0a38.82,38.82,0,0,1,10.72-27A37.85,37.85,0,0,1,24.2,3.62,38.54,38.54,0,0,1,38.92.5,38.79,38.79,0,0,1,53.73,3.42a38.32,38.32,0,0,1,12.5,8.45A38.59,38.59,0,0,1,66,66.31,37.8,37.8,0,0,1,12.17,66,38.59,38.59,0,0,1,1.22,39.21Z"/></g><g id="Portal-3" data-name="Portal" class="cls-11"><path class="cls-2" d="M1.36,31.16A29.41,29.41,0,0,0,30.9,60.63,29.38,29.38,0,1,0,10.11,10.34,29.67,29.67,0,0,0,1.36,31.16Zm-.08,0a29.84,29.84,0,0,1,29.62-30,30,30,0,1,1-29.62,30Z"/></g><g class="cls-12"><polygon class="cls-2" points="40.12 25.47 39.15 28.29 38.29 27.98 39.57 25.23 40.12 25.47"/><path class="cls-2" d="M37.81,33.84a38.25,38.25,0,0,0-.58,5.63l-2-.14a40.55,40.55,0,0,1,1.12-5.81Z"/><path class="cls-2" d="M37.53,45.07l.24,1.37c.09.46.16.92.25,1.36a16.11,16.11,0,0,0,.81,2.52l-2.82,1a18,18,0,0,1-.69-3.06c-.07-.51-.1-1-.14-1.5l-.13-1.5Z"/><path class="cls-2" d="M41.63,54.73a25.76,25.76,0,0,0,4,3.59l-2.42,3A29.07,29.07,0,0,1,39,56.91Z"/><polygon class="cls-2" points="50.32 61.4 55.26 64.26 52.88 68.22 48 64.97 50.32 61.4"/><polygon class="cls-2" points="60.32 67.08 65.42 69.91 62.48 74.58 57.73 71.36 60.32 67.08"/><path class="cls-2" d="M70.49,72.88c.82.53,1.65,1.06,2.46,1.61s1.63,1.09,2.43,1.66l-3.64,5.07c-.78-.53-1.55-1.08-2.32-1.64s-1.53-1.11-2.29-1.68Z"/><path class="cls-2" d="M80,79.76c1.48,1.3,2.95,2.6,4.4,3.92L81,87.84q-2.33-1.65-4.61-3.33Z"/><path class="cls-2" d="M88.6,87.84c1.31,1.47,2.64,2.9,3.9,4.4l-2.27,2.4c-1.58-1.1-3.09-2.28-4.63-3.41Z"/><path class="cls-2" d="M96.13,96.9c.58.83,1.16,1.67,1.71,2.53l-.43.42c-.85-.57-1.67-1.16-2.48-1.76Z"/></g><path class="cls-13" d="M192.25,139.84c-.35-2.92-11.8-8.08-15.36-7.51a45.81,45.81,0,0,1-.21,17.93C183.42,147.92,192.73,143.92,192.25,139.84Z"/><path class="cls-2" d="M192.2,139.85a3.46,3.46,0,0,0-1.2-1.77,11.31,11.31,0,0,0-1.77-1.32,29.09,29.09,0,0,0-3.92-2,32.5,32.5,0,0,0-4.14-1.5,11.39,11.39,0,0,0-4.24-.61l.25-.34a46.47,46.47,0,0,1,0,18.09l-.66-.58c1.53-.56,3.06-1.12,4.56-1.72s3-1.22,4.47-1.92a24.91,24.91,0,0,0,4.2-2.4,8.31,8.31,0,0,0,1.73-1.67A3.37,3.37,0,0,0,192.2,139.85Zm.1,0a3.51,3.51,0,0,1-.66,2.36A10.75,10.75,0,0,1,190,144a25.64,25.64,0,0,1-4.07,2.81,54.3,54.3,0,0,1-9.05,3.9L176,151l.2-.87a44.64,44.64,0,0,0,1.09-8.86,46.05,46.05,0,0,0-.68-8.92l0-.31.29,0a11.67,11.67,0,0,1,4.47.73,37.09,37.09,0,0,1,4.12,1.69,32.65,32.65,0,0,1,3.87,2.19,16.54,16.54,0,0,1,1.77,1.35A3.63,3.63,0,0,1,192.3,139.84Z"/><path class="cls-14" d="M118.05,179.75c2.27,5.1,5,9,8.1,9.32,5,.46,6-3.9,6.15-6.11A47.74,47.74,0,0,1,118.05,179.75Z"/><path class="cls-2" d="M118.09,179.79a41.67,41.67,0,0,0,2.78,4.87,10.46,10.46,0,0,0,4,3.75,3.8,3.8,0,0,0,1.27.34,6.76,6.76,0,0,0,1.35,0,4.39,4.39,0,0,0,2.4-1,4.91,4.91,0,0,0,1.44-2.17,9.49,9.49,0,0,0,.5-2.65l.45.51a32.28,32.28,0,0,1-3.68-.36,33.85,33.85,0,0,1-3.63-.75,32.77,32.77,0,0,1-3.53-1.09A22.89,22.89,0,0,1,118.09,179.79Zm-.07-.07,3.58.95c1.18.29,2.37.56,3.55.8s2.39.42,3.58.59,2.4.32,3.61.42l.49,0-.05.48a9.9,9.9,0,0,1-.67,2.88,5.8,5.8,0,0,1-1.76,2.45,5.17,5.17,0,0,1-2.8,1.06,8.12,8.12,0,0,1-1.48,0,4.77,4.77,0,0,1-1.45-.43,10.76,10.76,0,0,1-4-4.08A31.08,31.08,0,0,1,118,179.72Z"/><g class="cls-15"><path class="cls-2" d="M85,1.65A82.66,82.66,0,0,0,6.72,59.09,84.58,84.58,0,0,0,3.06,93a83.16,83.16,0,0,0,32.33,58.1A82,82,0,0,0,83,167.91,80,80,0,0,0,100,166.63l-.7,2.22a53.07,53.07,0,0,1-11.93-19.36,24,24,0,0,1-.84-2.74c-.24-.93-.51-1.84-.73-2.77l-.5-2.83-.24-1.41c-.06-.47-.08-1-.12-1.43l-.23-2.85c0-1,0-1.92,0-2.87a45.45,45.45,0,0,1,.45-5.71,43.86,43.86,0,0,1,9-20.83,42,42,0,0,1,18.48-13.12l-.45,1.64-1.7-2.07-.27-.32,0-.41c.38-5,.81-10,1.34-15,.27-2.51.56-5,.94-7.53a36.92,36.92,0,0,1,.77-3.82,5,5,0,0,1,.44-1.1,2.17,2.17,0,0,1,.38-.45,2.14,2.14,0,0,1,.57-.27,1.81,1.81,0,0,1,.95.05,3.65,3.65,0,0,1,1.12.59c.29.22.56.45.81.68a37.42,37.42,0,0,1,4.8,6.07c1.41,2.12,2.72,4.29,4,6.51A115.4,115.4,0,0,1,133,91.15l-.72-.53a49.68,49.68,0,0,1,18.59,5.55,51.66,51.66,0,0,1,8.14,5.34c.63.51,1.26,1,1.86,1.57s1.22,1.07,1.79,1.65a23.26,23.26,0,0,1,1.7,1.74l1.65,1.79-1.28.28A83.7,83.7,0,0,0,168,89.62a85.16,85.16,0,0,0-1.15-19.2,83.39,83.39,0,0,0-15.1-35.18,86.77,86.77,0,0,0-13.22-14.07A82.46,82.46,0,0,0,85,1.65Zm0-.3a83.69,83.69,0,0,1,37.5,8.88,85.45,85.45,0,0,1,16.27,10.6,86.66,86.66,0,0,1,13.43,14,84.21,84.21,0,0,1,15.64,35.36,86.25,86.25,0,0,1,1.38,19.45A84.7,84.7,0,0,1,166.12,109l-.36,1.27-.92-1-1.61-1.73c-.53-.59-1.08-1.15-1.66-1.68s-1.15-1.09-1.75-1.6-1.2-1-1.82-1.5a50.08,50.08,0,0,0-7.91-5.14,48.24,48.24,0,0,0-18-5.26l-.52,0-.2-.49a114.3,114.3,0,0,0-6.52-13.46c-1.23-2.17-2.52-4.3-3.91-6.36a36.94,36.94,0,0,0-4.56-5.72,3.75,3.75,0,0,0-1.17-.83c-.07,0,0,0,0,0a.34.34,0,0,0,.23-.15,4,4,0,0,0-.23.66,29.69,29.69,0,0,0-.69,3.57c-.37,2.46-.64,5-.89,7.44-.5,5-.9,10-1.25,15l-.23-.72,1.71,2,1,1.13-1.39.51A40,40,0,0,0,96,107.44a41.73,41.73,0,0,0-8.44,19.77,44.93,44.93,0,0,0-.4,5.43c0,.9,0,1.81,0,2.72l.24,2.71c0,.45.06.91.12,1.36l.25,1.34.48,2.68c.22.88.48,1.75.72,2.63a22.88,22.88,0,0,0,.81,2.59A50.67,50.67,0,0,0,101.23,167l1.73,1.78-2.44.45a82.43,82.43,0,0,1-17.6,1.45,85,85,0,0,1-17.54-2.19,84,84,0,0,1-31.85-15,85,85,0,0,1-23-26.64,83.77,83.77,0,0,1-6.92-16.29,84.64,84.64,0,0,1,19-82.16A86.12,86.12,0,0,1,51,8.34,83.51,83.51,0,0,1,85,1.35Z"/></g><path class="cls-16" d="M83,132s-25.71-3.06-26.14-.69c-.85,4.61,58.51,32.45,56.87,17.66C113.56,147.91,83,132,83,132Z"/><path class="cls-2" d="M82.93,132c-5.22-.56-10.48-1-15.74-1.32a64.76,64.76,0,0,0-7.88,0,7.72,7.72,0,0,0-1.88.35,1.29,1.29,0,0,0-.35.2.37.37,0,0,0-.06.1v.16a2.2,2.2,0,0,0,.45.75,16.35,16.35,0,0,0,3,2.45,111.39,111.39,0,0,0,13.85,7.51c4.77,2.23,9.63,4.26,14.57,6.05a84.82,84.82,0,0,0,15.15,4.15,26.48,26.48,0,0,0,3.86.34,8.8,8.8,0,0,0,3.65-.62,2.68,2.68,0,0,0,1.63-2.71v-.33s0-.14,0,0,0,0,0,0L113,149l-.79-.54-1.67-1c-4.52-2.69-9.16-5.2-13.77-7.76Zm0-.1c9.49,4.67,18.86,9.45,28.08,14.64.57.33,1.14.67,1.71,1,.28.18.56.37.85.58l.22.17a1.17,1.17,0,0,1,.29.35.67.67,0,0,1,.07.28v.14l0,.27a4,4,0,0,1-.52,2.16A3.72,3.72,0,0,1,112,153a9.78,9.78,0,0,1-4.08.71,26.68,26.68,0,0,1-4-.35A85.24,85.24,0,0,1,88.64,149q-7.42-2.78-14.58-6.21a111.41,111.41,0,0,1-13.85-7.69,17.44,17.44,0,0,1-3.08-2.57,2.58,2.58,0,0,1-.53-1,1.82,1.82,0,0,1,0-.33.63.63,0,0,1,.18-.32,1.39,1.39,0,0,1,.5-.3,8.24,8.24,0,0,1,2-.35,65.56,65.56,0,0,1,7.93.13C72.48,130.75,77.71,131.29,83,131.92Z"/></g></g></svg>