<svg xmlns="http://www.w3.org/2000/svg" xmlns:xlink="http://www.w3.org/1999/xlink" viewBox="0 0 192.95 189.6"><defs><style>.cls-1,.cls-10,.cls-11,.cls-12,.cls-13,.cls-14,.cls-2,.cls-6,.cls-7,.cls-8{stroke:#fff;stroke-miterlimit:10;}.cls-1{fill:url(#Fading_Sky);}.cls-2{fill:url(#Fading_Sky-2);}.cls-3{fill:url(#Fading_Sky-3);}.cls-4{fill:#fff;}.cls-5{fill:url(#Fading_Sky-4);}.cls-13,.cls-6,.cls-7,.cls-8{fill:none;}.cls-13,.cls-6{stroke-width:3px;}.cls-6{opacity:0.5;}.cls-12,.cls-7{stroke-width:2px;}.cls-7{opacity:0.25;}.cls-8{stroke-width:0.75px;opacity:0.1;}.cls-9{opacity:0.6;}.cls-10{fill:url(#Fading_Sky-5);}.cls-11{fill:url(#Fading_Sky-6);}.cls-12{fill:url(#Fading_Sky-7);}.cls-13{opacity:0.8;}.cls-14{fill:url(#Fading_Sky-8);}</style><linearGradient id="Fading_Sky" x1="149.21" y1="156.94" x2="160.87" y2="156.94" gradientTransform="translate(88.08 -53.26) rotate(26.98)" gradientUnits="userSpaceOnUse"><stop offset="0" stop-color="#2484c6"/><stop offset="1" stop-color="#2484c6" stop-opacity="0"/></linearGradient><linearGradient id="Fading_Sky-2" x1="111.56" y1="91.34" x2="136.84" y2="91.34" gradientTransform="matrix(1, 0, 0, 1, 0, 0)" xlink:href="#Fading_Sky"/><linearGradient id="Fading_Sky-3" x1="103.08" y1="130.37" x2="143.67" y2="130.37" gradientTransform="matrix(1, 0, 0, 1, 0, 0)" xlink:href="#Fading_Sky"/><linearGradient id="Fading_Sky-4" x1="146.65" y1="122.91" x2="159.06" y2="122.91" gradientTransform="matrix(1, 0, 0, 1, 0, 0)" xlink:href="#Fading_Sky"/><linearGradient id="Fading_Sky-5" x1="176.86" y1="141.28" x2="192.45" y2="141.28" gradientTransform="matrix(1, 0, 0, 1, 0, 0)" xlink:href="#Fading_Sky"/><linearGradient id="Fading_Sky-6" x1="118.24" y1="184.43" x2="132.49" y2="184.43" gradientTransform="matrix(1, 0, 0, 1, 0, 0)" xlink:href="#Fading_Sky"/><linearGradient id="Fading_Sky-7" x1="86.07" y1="137.28" x2="177.86" y2="137.28" gradientTransform="matrix(1, 0, 0, 1, 0, 0)" xlink:href="#Fading_Sky"/><linearGradient id="Fading_Sky-8" x1="56.98" y1="141.81" x2="113.89" y2="141.81" gradientTransform="matrix(1, 0, 0, 1, 0, 0)" xlink:href="#Fading_Sky"/></defs><title>paxxageAsset 8</title><g id="Layer_2" data-name="Layer 2"><g id="Layer_1-2" data-name="Layer 1"><ellipse class="cls-1" cx="155.04" cy="156.94" rx="5.73" ry="6.2" transform="translate(-54.33 87.43) rotate(-26.98)"/><path class="cls-2" d="M111.56,91.84s1.81-26.13,3.44-27.28c3.6-2.53,29.68,41.43,19.49,53.65C133.92,118.9,111.56,91.84,111.56,91.84Z"/><path class="cls-3" d="M103.08,110.65A200.27,200.27,0,0,0,118,127.84a199.38,199.38,0,0,0,25.69,22.25"/><path class="cls-4" d="M103.2,110.55c3.08,3.6,6.21,7.14,9.5,10.52s6.62,6.72,10.1,9.89,7.21,6,10.65,9.23,7,6.33,10.3,9.77l-.17.25a71.64,71.64,0,0,1-12.06-7.72,98.33,98.33,0,0,1-10.39-9.81q-5-5.15-9.55-10.61c-3-3.68-5.92-7.44-8.62-11.33Z"/><path class="cls-5" d="M146.65,102.62a49.86,49.86,0,0,1,11.92,25.45,48.05,48.05,0,0,1-.23,15.14"/><path class="cls-4" d="M146.72,102.56a51.94,51.94,0,0,1,6.64,8.73,49.67,49.67,0,0,1,4.56,10.07A38.59,38.59,0,0,1,160,132.27a32.63,32.63,0,0,1-1.55,10.95l-.2,0a94.57,94.57,0,0,0-.25-10.81c-.17-1.77-.31-3.55-.6-5.31a41.34,41.34,0,0,0-1-5.26,48.78,48.78,0,0,0-3.89-10,51.36,51.36,0,0,0-5.92-9.09Z"/><ellipse id="Portal" class="cls-6" cx="59.13" cy="59.28" rx="57.63" ry="57.78"/><ellipse id="Portal-2" data-name="Portal" class="cls-7" cx="39.11" cy="39.21" rx="37.61" ry="37.71"/><ellipse id="Portal-3" data-name="Portal" class="cls-8" cx="31.08" cy="31.16" rx="29.58" ry="29.66"/><g class="cls-9"><path class="cls-4" d="M40.3,25.47A44.71,44.71,0,0,0,37.49,38a35.18,35.18,0,0,0,.13,6.33c.11,1,.29,2.08.5,3.1.11.5.25,1,.37,1.46s.31,1,.51,1.4c1.47,3.7,4.52,6.48,8,8.83s7.24,4.45,11,6.58,7.67,4.2,11.47,6.46a84.22,84.22,0,0,1,10.83,7.68A100,100,0,0,1,89.85,89,78.53,78.53,0,0,1,98,99.43l-.43.42C94,97.32,90.49,94.71,87,92.13S80.08,87,76.6,84.56c-7-4.88-13.74-10.1-21.1-14.77-3.65-2.37-7.38-4.69-10.94-7.49a33.51,33.51,0,0,1-5-4.81,18.66,18.66,0,0,1-3.43-6.2c-.2-.56-.3-1.15-.45-1.72s-.21-1.16-.29-1.72c-.13-1.13-.22-2.25-.24-3.38a37.42,37.42,0,0,1,.45-6.7,42.55,42.55,0,0,1,4.1-12.54Z"/></g><path class="cls-10" d="M192.43,139.84c-.35-2.92-11.8-8.08-15.36-7.51a45.63,45.63,0,0,1-.21,17.93C183.61,147.92,192.91,143.91,192.43,139.84Z"/><path class="cls-11" d="M118.24,179.75c2.26,5.1,5,9,8.09,9.32,5,.46,6-3.9,6.16-6.11A47.6,47.6,0,0,1,118.24,179.75Z"/><path class="cls-12" d="M163.1,106.06a49.8,49.8,0,0,0-30.75-14.59c4.25,10.65,6.47,21.56,2.14,26.74-.47.58-16-18-21.22-24.3a41.05,41.05,0,0,0-15,9.55c-17.19,17.2-16,46.23,2.59,64.86s47.67,19.79,64.86,2.59S181.72,124.68,163.1,106.06Z"/><path class="cls-13" d="M85.19,1.5a83.93,83.93,0,1,0,15.27,166.43c-18.26-18.64-19.3-47.39-2.22-64.47a41.05,41.05,0,0,1,15-9.55l-1.71-2.07s1.81-26.13,3.44-27.28c2.07-1.46,11.58,12.48,17.35,26.91a49.8,49.8,0,0,1,30.75,14.59c.87.87,1.69,1.77,2.49,2.69A83.94,83.94,0,0,0,85.19,1.5Z"/><path class="cls-14" d="M83.13,132s-25.7-3.06-26.14-.69c-.84,4.61,58.51,32.45,56.87,17.66C113.74,147.91,83.13,132,83.13,132Z"/></g></g></svg>