<?xml version="1.0" encoding="utf-8"?>
<!-- Generator: Adobe Illustrator 24.0.1, SVG Export Plug-In . SVG Version: 6.00 Build 0)  -->
<svg version="1.1" id="a6afbdd4-4f8a-4a84-bbe8-d87b6169081e"
	 xmlns="http://www.w3.org/2000/svg" xmlns:xlink="http://www.w3.org/1999/xlink" x="0px" y="0px" viewBox="0 0 747.8 668.8"
	 style="enable-background:new 0 0 747.8 668.8;" xml:space="preserve">
<style type="text/css">
	.st0{fill:#D0CDE1;}
	.st1{opacity:0.1;enable-background:new    ;}
	.st2{fill:#FFFFFF;}
	.st3{fill:#3F3D56;}
	.st4{fill:url(#SVGID_1_);stroke:#FFFFFF;stroke-miterlimit:10;}
	.st5{fill:#FFFFFF;stroke:#231F20;stroke-miterlimit:10;}
	.st6{fill:url(#SVGID_2_);stroke:#FFFFFF;stroke-miterlimit:10;}
	.st7{fill:url(#SVGID_3_);stroke:#FFFFFF;stroke-width:2;stroke-miterlimit:10;}
	.st8{fill:url(#SVGID_4_);}
	.st9{fill:url(#SVGID_5_);}
	.st10{opacity:0.5;fill:none;stroke:#FFFFFF;stroke-width:3;stroke-miterlimit:10;}
	.st11{opacity:0.25;fill:none;stroke:#FFFFFF;stroke-width:2;stroke-miterlimit:10;}
	.st12{opacity:0.1;fill:none;stroke:#FFFFFF;stroke-width:0.75;stroke-miterlimit:10;}
	.st13{opacity:0.6;}
	.st14{fill:url(#SVGID_6_);stroke:#FFFFFF;stroke-miterlimit:10;}
	.st15{fill:url(#SVGID_7_);stroke:#FFFFFF;stroke-miterlimit:10;}
	.st16{opacity:0.8;fill:none;stroke:#FFFFFF;stroke-width:3;stroke-miterlimit:10;}
	.st17{fill:url(#SVGID_8_);stroke:#FFFFFF;stroke-miterlimit:10;}
</style>
<title>noted</title>
<path class="st0" d="M62.7,483.3L426,666.3c6.9,3.4,14.9,3.4,21.8,0l268.7-136.4c3.2-3.2,2.7-7.8,1.7-11.3c-0.5-1.7-1.2-3.3-2-4.9
	l-36.6-19.3L371.7,340.7l-18.4-9.8c-9.9-5.2-21.7-5.3-31.6-0.1l-259,134.6c-4.9,2.6-6.9,8.6-4.3,13.6
	C59.3,480.8,60.8,482.4,62.7,483.3z"/>
<path class="st1" d="M62.7,483.3L426,666.3c6.9,3.4,14.9,3.4,21.8,0l268.7-136.4c3.2-3.2,2.7-7.8,1.7-11.3L450.3,657.8
	c-6.6,3.4-14.5,3.5-21.2,0.2L57.3,472.7C56.6,477.1,58.8,481.4,62.7,483.3z"/>
<path class="st1" d="M407.5,538.1l-117.6-59.4c-4.8-2.4-10.5-2.4-15.2,0.2l-68.2,36.5c-2.4,1.3-3.3,4.2-2,6.6
	c0.5,0.9,1.2,1.6,2.1,2.1l119.9,60.5c4,2,8.8,1.9,12.8-0.3l68.5-38.6c2-1.1,2.7-3.7,1.6-5.7C408.9,539.1,408.3,538.5,407.5,538.1z"
	/>
<path class="st1" d="M684.6,528.2L558,595.4c-3,1.6-6.5,1.6-9.5,0.1L190.8,414.7c-3-1.5-4.2-5.2-2.7-8.2c0.6-1.2,1.6-2.1,2.7-2.7
	l123.6-61.2c3.8-1.9,8.2-1.9,12,0l358,180.4c1.4,0.7,2,2.5,1.3,3.9C685.5,527.5,685.1,527.9,684.6,528.2z"/>
<rect x="429.2" y="44.7" transform="matrix(0.455 -0.8905 0.8905 0.455 161.1514 427.6371)" class="st2" width="1.4" height="74.9"/>
<rect x="424.2" y="56.7" transform="matrix(0.455 -0.8905 0.8905 0.455 147.7405 429.7246)" class="st2" width="1.4" height="74.9"/>
<path class="st3" d="M732.1,185.3L378.2,7.3c-1.1-0.5-2.3-0.9-3.5-0.9c-4.9-0.3-9.1,3.5-9.4,8.4L346.8,328l361.9,184.7
	c1,0.5,2.1,0.8,3.2,0.9c4.6,0.3,8.5-3.1,8.8-7.7l20.6-304.5C741.7,194.6,738.1,188.3,732.1,185.3z M722.8,206.8l-18.6,276.1
	c-0.3,4.1-3.9,7.3-8,7c-1-0.1-2-0.3-2.9-0.8L365.2,321.6l16.8-283.9c0.3-4.4,4.1-7.8,8.5-7.6c1.1,0.1,2.2,0.4,3.1,0.8l320.8,161.3
	C719.9,195,723.2,200.7,722.8,206.8z"/>
<path class="st0" d="M736.8,183.4L374,1c-1.1-0.6-2.3-0.9-3.6-1c-5-0.3-9.3,3.5-9.6,8.6l-19,321.1l371,189.4c1,0.5,2.1,0.8,3.3,0.9
	c4.7,0.3,8.7-3.2,9.1-7.9l21.1-312.2C746.7,193,743,186.5,736.8,183.4z M722.8,206.8l-18.6,276.1c-0.3,4.1-3.9,7.3-8,7
	c-1-0.1-2-0.3-2.9-0.8L365.2,321.6l16.8-283.9c0.3-4.4,4.1-7.8,8.5-7.6c1.1,0.1,2.2,0.4,3.1,0.8l320.8,161.3
	C719.9,195,723.2,200.7,722.8,206.8z"/>
<g>
	<linearGradient id="SVGID_1_" gradientUnits="userSpaceOnUse" x1="659.0782" y1="428.5182" x2="680.5012" y2="428.5182">
		<stop  offset="0" style="stop-color:#2483C5"/>
		<stop  offset="1" style="stop-color:#2483C5;stop-opacity:0"/>
	</linearGradient>
	<path class="st4" d="M660.4,433.3c2.9,5.6,9.4,8,14.5,5.4c5.2-2.6,7.1-9.3,4.2-14.9c-2.9-5.6-9.4-8-14.5-5.4
		C659.4,421,657.6,427.7,660.4,433.3z"/>
	<path class="st5" d="M530.9,346"/>
	<linearGradient id="SVGID_2_" gradientUnits="userSpaceOnUse" x1="589.9078" y1="307.9681" x2="636.3486" y2="307.9681">
		<stop  offset="0" style="stop-color:#2483C5"/>
		<stop  offset="1" style="stop-color:#2483C5;stop-opacity:0"/>
	</linearGradient>
	<path class="st6" d="M589.9,308.9c0,0,3.3-48,6.3-50.1c6.6-4.6,54.5,76.1,35.8,98.6C631,358.6,589.9,308.9,589.9,308.9z"/>
	<linearGradient id="SVGID_3_" gradientUnits="userSpaceOnUse" x1="543.0591" y1="392.3806" x2="711.7325" y2="392.3806">
		<stop  offset="0" style="stop-color:#2483C5"/>
		<stop  offset="1" style="stop-color:#2483C5;stop-opacity:0"/>
	</linearGradient>
	<path class="st7" d="M684.6,335c-16-16-36.3-25-56.5-26.8c7.8,19.6,11.9,39.6,3.9,49.1c-0.9,1.1-29.4-33.1-39-44.7
		c-10.2,3.7-19.6,9.5-27.6,17.6c-31.6,31.6-29.5,84.9,4.8,119.2c34.2,34.2,87.6,36.4,119.2,4.8S718.8,369.2,684.6,335z"/>
	<g>
		<linearGradient id="SVGID_4_" gradientUnits="userSpaceOnUse" x1="574.3181" y1="379.681" x2="648.8961" y2="379.681">
			<stop  offset="0" style="stop-color:#2483C5"/>
			<stop  offset="1" style="stop-color:#2483C5;stop-opacity:0"/>
		</linearGradient>
		<path class="st8" d="M574.3,343.4c7.8,10.1,16.8,20.7,27.4,31.6c16.4,16.8,32.6,30.3,47.2,40.9"/>
		<path class="st2" d="M574.4,343.4c5.5,6.8,11.2,13.3,17.1,19.7c5.9,6.4,12,12.5,18.3,18.5c3.2,3,6.4,5.9,9.7,8.7l9.8,8.5
			c6.5,5.7,13.1,11.3,19.7,17.1l-0.2,0.2c-7.5-4.4-14.6-9.6-21.4-15c-6.8-5.5-13.1-11.6-19.2-17.8c-6.2-6.2-12.1-12.6-17.8-19.2
			c-5.7-6.6-11.1-13.5-16.2-20.5L574.4,343.4z"/>
	</g>
	<g>
		<linearGradient id="SVGID_5_" gradientUnits="userSpaceOnUse" x1="654.3736" y1="365.9873" x2="677.1876" y2="365.9873">
			<stop  offset="0" style="stop-color:#2483C5"/>
			<stop  offset="1" style="stop-color:#2483C5;stop-opacity:0"/>
		</linearGradient>
		<path class="st9" d="M654.4,328.7c6.3,7.2,18.5,23.2,21.9,46.8c1.6,11.1,0.8,20.7-0.4,27.8"/>
		<path class="st2" d="M654.4,328.6c4.5,5,8.5,10.4,11.9,16.2c3.4,5.8,6.1,12,8.1,18.5c2,6.4,3.4,13.1,3.6,19.9
			c0.1,3.4,0,6.8-0.3,10.1c-0.3,3.4-0.9,6.7-1.8,9.9l-0.2,0c0.1-1.7,0.3-3.3,0.4-5c0.1-1.7,0.2-3.3,0.2-5c0-3.3,0-6.6-0.3-9.9
			c-0.1-1.6-0.2-3.3-0.5-4.9c-0.2-1.6-0.4-3.3-0.7-4.9c-0.1-0.8-0.2-1.6-0.4-2.5l-0.5-2.4c-0.3-1.6-0.8-3.2-1.2-4.8
			c-1.8-6.4-4.3-12.6-7.4-18.4c-3.1-5.9-6.9-11.4-11.2-16.6L654.4,328.6z"/>
	</g>
	<ellipse id="Portal_1_" class="st10" cx="493.6" cy="249.1" rx="105.9" ry="106.2"/>
	<ellipse id="Portal_2_" class="st11" cx="456.8" cy="212.2" rx="69.1" ry="69.3"/>
	<ellipse id="Portal_3_" class="st12" cx="442" cy="197.4" rx="54.4" ry="54.5"/>
	<g class="st13">
		<path class="st2" d="M458.7,186.8c-2.9,7.4-5,15.1-5.7,23c-0.3,3.9-0.4,7.9,0,11.8c0.2,2,0.4,3.9,0.8,5.8c0.2,1,0.4,1.9,0.6,2.8
			c0.3,0.9,0.5,1.8,0.9,2.7c1.4,3.5,3.4,6.8,6,9.6c2.6,2.8,5.6,5.3,8.8,7.6c6.4,4.5,13.3,8.4,20.2,12.4c6.9,4,13.9,8,20.8,12.2
			c6.8,4.3,13.4,8.9,19.7,14c3.1,2.6,6.2,5.2,9.2,7.9c3,2.7,5.9,5.5,8.7,8.3c5.7,5.7,11.1,11.7,16,18l-0.4,0.4
			c-6.2-5.2-12.2-10.3-18.4-15.3c-3.1-2.5-6.2-5-9.3-7.4l-4.7-3.6c-1.6-1.2-3.2-2.4-4.8-3.5c-12.7-9.4-25.7-18.5-39.3-26.9
			c-6.8-4.3-13.6-8.4-20.1-13.4c-3.2-2.5-6.3-5.3-9-8.4c-2.7-3.2-4.9-6.9-6.2-10.8c-0.4-1-0.6-2-0.9-3c-0.2-1-0.4-2.1-0.6-3.1
			c-0.3-2-0.5-4.1-0.6-6.1c-0.2-4.1,0-8.1,0.6-12.1c1.1-8,3.6-15.8,7-23L458.7,186.8z"/>
	</g>
	<linearGradient id="SVGID_6_" gradientUnits="userSpaceOnUse" x1="709.8961" y1="399.7267" x2="738.535" y2="399.7267">
		<stop  offset="0" style="stop-color:#2483C5"/>
		<stop  offset="1" style="stop-color:#2483C5;stop-opacity:0"/>
	</linearGradient>
	<path class="st14" d="M738.5,397.1c-0.6-5.4-21.7-14.8-28.2-13.8c2,11,1.9,22.3-0.4,33C722.3,411.9,739.4,404.6,738.5,397.1z"/>
	<linearGradient id="SVGID_7_" gradientUnits="userSpaceOnUse" x1="602.169" y1="479.0182" x2="628.3521" y2="479.0182">
		<stop  offset="0" style="stop-color:#2483C5"/>
		<stop  offset="1" style="stop-color:#2483C5;stop-opacity:0"/>
	</linearGradient>
	<path class="st15" d="M602.2,470.4c4.2,9.4,9.2,16.6,14.9,17.1c9.2,0.9,11-7.2,11.3-11.2C619.5,475.7,610.7,473.8,602.2,470.4z"/>
	<path class="st16" d="M541.5,142.9c-84.9,0-153.8,69-153.8,154.2c0,85.2,68.9,154.2,153.8,154.2c9.6,0,19-0.9,28.1-2.6
		c-33.6-34.2-35.5-87.1-4.1-118.5c8-8,17.5-13.9,27.6-17.6c-2-2.3-3.1-3.8-3.1-3.8s3.3-48,6.3-50.1c3.8-2.7,21.3,22.9,31.9,49.5
		c20.2,1.8,40.5,10.8,56.5,26.8c1.6,1.6,3.1,3.3,4.6,4.9c3.9-13.6,6.1-28,6.1-42.9C695.2,211.9,626.4,142.9,541.5,142.9z"/>
	<linearGradient id="SVGID_8_" gradientUnits="userSpaceOnUse" x1="489.6114" y1="400.7007" x2="594.1829" y2="400.7007">
		<stop  offset="0" style="stop-color:#2483C5"/>
		<stop  offset="1" style="stop-color:#2483C5;stop-opacity:0"/>
	</linearGradient>
	<path class="st17" d="M537.7,382.6c0,0-47.2-5.6-48-1.3c-1.6,8.5,107.5,59.6,104.5,32.4C593.9,411.9,537.7,382.6,537.7,382.6z"/>
</g>
</svg>
