<?xml version="1.0" encoding="utf-8"?>
<!-- Generator: Adobe Illustrator 24.0.1, SVG Export Plug-In . SVG Version: 6.00 Build 0)  -->
<svg version="1.1" id="a50fd755-b70f-4e5f-b336-9e50a578b62c"
	 xmlns="http://www.w3.org/2000/svg" xmlns:xlink="http://www.w3.org/1999/xlink" x="0px" y="0px" viewBox="0 0 1128.3 786.8"
	 style="enable-background:new 0 0 1128.3 786.8;" xml:space="preserve">
<style type="text/css">
	.st0{fill:url(#SVGID_1_);}
	.st1{fill:#A1616A;}
	.st2{fill:#3F3D56;}
	.st3{fill:#C6C3CB;}
	.st4{opacity:0.1;enable-background:new    ;}
	.st5{opacity:0.15;enable-background:new    ;}
	.st6{fill:#5839FF;}
	.st7{fill:#FBBEBE;}
	.st8{opacity:0.1;}
	.st9{fill:url(#SVGID_2_);stroke:#FFFFFF;stroke-miterlimit:10;}
	.st10{fill:#FFFFFF;stroke:#231F20;stroke-miterlimit:10;}
	.st11{fill:url(#SVGID_3_);stroke:#FFFFFF;stroke-miterlimit:10;}
	.st12{fill:url(#SVGID_4_);stroke:#FFFFFF;stroke-width:2;stroke-miterlimit:10;}
	.st13{fill:url(#SVGID_5_);}
	.st14{fill:#FFFFFF;}
	.st15{fill:url(#SVGID_6_);}
	.st16{opacity:0.5;fill:none;stroke:#FFFFFF;stroke-width:3;stroke-miterlimit:10;}
	.st17{opacity:0.25;fill:none;stroke:#FFFFFF;stroke-width:2;stroke-miterlimit:10;}
	.st18{opacity:0.1;fill:none;stroke:#FFFFFF;stroke-width:0.75;stroke-miterlimit:10;}
	.st19{opacity:0.6;}
	.st20{fill:url(#SVGID_7_);stroke:#FFFFFF;stroke-miterlimit:10;}
	.st21{fill:url(#SVGID_8_);stroke:#FFFFFF;stroke-miterlimit:10;}
	.st22{opacity:0.8;fill:none;stroke:#FFFFFF;stroke-width:3;stroke-miterlimit:10;}
	.st23{fill:url(#SVGID_9_);stroke:#FFFFFF;stroke-miterlimit:10;}
</style>
<title>booking</title>
<linearGradient id="SVGID_1_" gradientUnits="userSpaceOnUse" x1="850.4218" y1="-3.647" x2="850.4218" y2="440.8303" gradientTransform="matrix(1 0 0 -1 -35.84 731.37)">
	<stop  offset="0" style="stop-color:#808080;stop-opacity:0.25"/>
	<stop  offset="0.54" style="stop-color:#808080;stop-opacity:0.12"/>
	<stop  offset="1" style="stop-color:#808080;stop-opacity:0.1"/>
</linearGradient>
<path class="st0" d="M901.8,688.6c-2.3-1.7-4.8-3.1-7.4-4.2c-0.2-0.1-0.4-0.2-0.7-0.2c-5.5-3.9-10.6-8.3-15.3-13.2
	c1-0.8,1.9-1.6,2.9-2.3c-6-2.9-9.3-9.4-12.6-15.3c-8.6-15.7-19.9-29.8-33.3-41.5c-0.3-1.3-2.3-1-3.3-1.8c-0.7-0.7-1-1.6-0.7-2.5
	c0.2-0.9,0.6-1.8,0.8-2.7c0.5-2.1,0.1-4.3-0.2-6.5s-0.1-4.6,1.3-6.2c0.5-0.5,1-0.9,1.5-1.5c1-1.3,1.3-2.9,1-4.5
	c-0.1-1.6-0.4-3.1-1-4.5c4.9-13.3,9.8-26.7,14.7-40.1c3.4-9.3,6.9-18.9,7.2-28.8c0.3-8-1.8-16.3-6.6-22.4c0.9-0.2,1.8-0.4,2.6-0.7
	c-5.7-7.6-6.3-17.6-6.5-27.2c-0.1-4.8-0.2-9.5-0.5-14.3c1.7,0.7,3.3,1.4,5.1,1.9l1.6,0.5c2.6,0.8,5.2,1.3,7.9,1.7
	c1.2,0.2,2.4,0.3,3.6,0.4l0,0c-1.7-4.3-3.4-8.6-5.2-12.9c-0.9-1.9-1.4-4-1.6-6.1l0,0v-0.4c0-0.2,0-0.5,0-0.7
	c0.1-0.6,0.2-1.1,0.4-1.7c0.1-0.3,0.2-0.5,0.3-0.8c0.4-0.8,0.8-1.5,1.3-2.3c0.4-0.5,0.8-1.1,1.2-1.6c1.5-1.7,2.7-3.7,3.6-5.8
	c0.4-1.1,0.5-2.2,0.5-3.3c0-1.1-0.1-2.3-0.3-3.4c-0.1-0.7-0.3-1.5-0.5-2.2l0,0c-0.1-0.5-0.3-0.9-0.4-1.3l-0.1-0.4
	c-0.1-0.3-0.2-0.7-0.3-1l-0.1-0.3c-0.1-0.4-0.3-0.7-0.4-1.1l-0.1-0.2c-1.9-4.9-4.5-9.6-6-14.6c-0.4-1.3-0.7-2.7-1-4.1
	c-0.1-0.4-0.1-0.7-0.2-1.1s-0.1-0.6-0.1-0.9s-0.1-0.7-0.1-1l-0.1-1c0-0.3,0-0.6-0.1-1c0-0.6-0.1-1.2-0.1-1.8c0-0.2,0-0.4,0-0.6
	c0-0.5,0-0.9,0-1.4c0-0.3,0-0.5,0-0.7c0-0.5,0.1-0.9,0.1-1.4c0-0.2,0-0.4,0.1-0.6c0.1-0.7,0.2-1.3,0.3-2l0,0
	c0.1-0.6,0.2-1.2,0.3-1.8c0.4-1.6,0.5-3.3,0.6-5c0-0.3,0-0.6-0.1-1s-0.1-0.5-0.1-0.8c0-0.1,0-0.2,0-0.2c0-0.2-0.1-0.4-0.1-0.5
	s0-0.2-0.1-0.3s-0.1-0.4-0.2-0.5s0-0.1-0.1-0.2s-0.1-0.4-0.2-0.5l-0.1-0.2c-0.1-0.2-0.2-0.4-0.3-0.6l0,0c-0.4-0.7-0.8-1.4-1.3-2.1
	l0,0c-3.3-4.3-8.8-7.6-11.8-12.4c-1.8-3.1-2.9-6.5-3.4-10c-0.2-0.8-0.3-1.6-0.4-2.4s-0.3-1.6-0.4-2.4c-0.1-0.5-0.2-1-0.3-1.4
	l-0.1-0.3c-0.1-0.4-0.2-0.8-0.3-1.1l-0.1-0.3c-0.1-0.4-0.2-0.8-0.3-1.2l-0.1-0.2c-0.1-0.4-0.2-0.8-0.3-1.3c0,0,0-0.1,0-0.1
	c-0.1-0.4-0.3-0.9-0.4-1.3v-0.1c-0.1-0.5-0.3-0.9-0.4-1.4l0,0c-0.2-0.5-0.3-0.9-0.5-1.4l0,0c-0.2-0.5-0.3-0.9-0.5-1.4l0,0
	c-1.3-3.2-3-6.3-5.1-9c-4.6-5.9-11.7-10.1-19-9.8c-3.9,0.1-7.7,1.5-11.4,2.9l-9.6,3.5l2.7-1.2c-2.8,0.3-5.7,0.5-8.2,1.8
	s-4.7,3.7-4.8,6.5c0,1.6,0.6,3.3,0.4,4.9c-0.3,2.7-2.8,4.5-4.1,7c-0.8,1.4-1.1,3.1-1,4.7v0.1c0,0.2,0,0.4,0,0.6c0,0.1,0,0.1,0,0.2
	v0.3c-4-1.7-8-3.5-12-5.5c-6.6-3.3-13.3-7.1-17.4-13.2c-1.3-2-2.3-4.2-3.7-6.1c-1.5-2.1-3.2-4.1-5-6l-12.3-13.3
	c-0.9,1.8,0.3,3.9,1.2,5.6c1,1.8,1.8,3.8,2.3,5.9c0.2,0.7,0.2,1.4-0.1,2c-0.4,0.5-1,0.9-1.7,1.2c-2.3,1.5-3.3,4.3-2.5,6.9
	c0.9,2.5,3,4.4,5.7,4.9c0.9,0.1,1.7,0.3,2.5,0.6c1.5,0.7,2.2,2.4,3.2,3.7c1.9,2.3,5,3.2,7.9,4c4.5,5.2,9.3,10.3,13.8,15.5
	c6.9,7.9,13.9,16,22.9,21.4c0.9,0.6,1.9,1.1,2.8,1.6c0,0.2,0,0.3,0,0.5c-0.3,1.2-0.1,2.4,0.4,3.5c0.8,1.3,2.5,1.6,3.9,1.9l6.8,1.2
	c-0.1,0.9-0.2,1.8-0.3,2.6c-0.1,0.5-0.2,1-0.3,1.6l0,0l-0.1,0.7c0,0,0,0.1,0,0.1s0,0.4-0.1,0.5s0,0.1,0,0.2v0.5v0.2
	c0,0.2,0,0.4,0,0.6c0.2,2.7,2,4.9,3.8,6.9l1,1.1c-1.5,1.9-2.6,4.1-3.1,6.5c-0.3,1.5-0.4,3-0.4,4.5c-0.9,0.9-1.6,1.9-2,3.1
	c-0.5,1.6-0.7,3.3-0.5,5.1v0.1c0,0.6,0,1.3,0,1.9c-0.1,2.4,0.3,4.8,1.2,7c0.1,0.2,0.2,0.3,0.3,0.5c-1.5,2.9-4,5.2-5.8,8
	c-3.7,6.3-3.1,14.2,1.6,19.9c1.4,1.6,3.1,3.1,3.3,5.2c0,1-0.1,1.9-0.3,2.8c-0.2,2.3,0.9,4.4,1.4,6.6c0.5,1.8,0.5,4-0.5,5.5
	c-1.1,1.5-1.5,3.4-1.4,5.2c0.5,2.8-0.7,5.7-0.9,8.5c-0.1,1.2,0,2.5-0.1,3.7c-0.1,1.2-0.4,2.3-0.7,3.5c0,0.1-0.1,0.3-0.1,0.4
	c-2.5,1.1-4.9,2.2-7.3,3.5c-1.3,0.6-2.3,1.5-3,2.8c-0.4,1.2-0.5,2.5-0.2,3.8l2.1,14.8l-0.4-0.2c0.2,2.4,0.3,4.9,0.5,7.3
	c0.1,1.8,0.3,3.8,1.4,5.3c0.6,0.6,1.1,1.2,1.5,1.9c0.8,1.7-0.2,3.7-0.9,5.4s-1,4.2,0.6,5.2c0.9,0.6,1.8,1.1,2.7,1.5
	c-2,8.3-0.2,17.1,1.7,25.5c1.4,6.4,2.8,12.8,4.3,19.2c0.6,2.7,0.9,5.5,0.9,8.2c0,0.4,0,0.8,0,1.2c0.2,3.8,0.9,7.6,2,11.2
	c2.2,7.5,0.1,16.5,0.8,24.6c0.5,3.9,1.2,7.8,2.3,11.6c4.8,19.2,9.1,37.9,10.8,57.6c1.8,2.3,4.2,3.9,6.9,4.8c-0.2,2.4,0.1,5.2,0,6.6
	c0,1.2-0.2,2.3-0.5,3.4c-0.8,2.2-3,3.7-5.2,4.5c-0.7,0.2-1.4,0.4-2.1,0.6l0.8-0.7c-4.6-1-9.4-0.2-13.3,2.3c-1.3,0.6-2.2,1.8-2.6,3.1
	c-0.2,1.3,0.2,2.6,0.9,3.6c2.2,3.2,5.5,5.6,9.3,6.6c3.7,1,7.6,1.5,11.4,1.6l7.1,0.4c-0.5,0.8-0.3,1.9,0.5,2.5
	c0.8,0.6,1.7,0.9,2.6,0.9c2.9,0.4,5.8,0.5,8.7,0.1c0.7,0,1.4-0.3,2-0.7c0.5-0.5,0.6-1.3,0.1-1.8c0,0-0.1-0.1-0.1-0.1
	c0.9,0,1.6-0.6,1.9-1.4c0.3-0.8,0.4-1.7,0.3-2.5c-0.2-3.3-0.5-8.1-2.2-11c-0.6-1.1-1.9-1.7-3.1-1.4c-1.1-5.9-1.8-11.8-2-17.7
	c1.8-0.7,3.5-1.4,5.1-2.3c-4.9-7.9-5-18-3.5-27.2c0.6-2.9,1-5.9,1.3-8.8c0.3-5.9-0.6-12.6-3.8-17.5c6,3.8,11.2,8.6,15.6,14.1
	c6.9,9,11.1,19.9,19.6,27.4c1.1-1.1,2.2-2.2,3.4-3.2c1.8,3,3.5,6.1,5.1,9.3c1.3,2.3,2.2,4.8,2.9,7.3c0.8,3.9,0.9,7.9,0.3,11.8
	c-0.2,2.1-0.5,4.1-0.8,6.2c-0.1,0.9-0.3,1.8-0.6,2.6c0-0.3-0.1-0.5-0.2-0.8c-0.5-0.9-2-0.5-2.8,0.1c-1.4,1.1-2.6,2.4-3.5,4
	c-0.5,0.8-0.7,1.7-0.6,2.5c0.3,1.1,1,2,2,2.5c3.7,2.2,8.4,0.6,12.3-1c1.1-0.4,2.1-0.9,3.1-1.6c2-1.4,3.1-3.8,5.1-5.2
	c1.1-0.6,2.1-1.2,3.1-1.9c1.8-1.7,2-4.5,3.3-6.7c2.2-3.7,7.3-4.6,9.2-8.5C907.9,696.9,905.2,691.5,901.8,688.6z"/>
<path class="st1" d="M815.6,706.2c0,1.2-0.2,2.3-0.5,3.4c-0.8,2.2-3,3.6-5.2,4.4s-4.6,1-6.8,1.7c-1,0.2-1.9,0.7-2.7,1.4
	c-2,2-0.8,5.6,1.5,7.1s5.3,1.4,8.1,1.3c5.9-0.3,11.8-1.2,17.5-2.5c2.1-0.5,4.5-1.5,4.8-3.6c0.1-0.7,0-1.3-0.2-2
	c-1.4-7.2-2.2-14.4-2.3-21.7c0-0.5-11.6-0.8-12.7-0.1C814.8,697.1,815.7,703.8,815.6,706.2z"/>
<path class="st1" d="M867.3,680.8c1.9,3.2,3.7,6.4,5.4,9.7c1.2,2.3,2.2,4.7,2.9,7.2c0.8,3.8,0.9,7.8,0.3,11.6
	c-0.2,2-0.5,4.1-0.9,6.1c-0.3,2-0.9,4.3-2.6,5.4c1.5,0.9,3.4,1.1,5.1,0.5c1.7-0.6,3.2-1.6,4.5-2.8c8.6-7.1,15-17.3,15.3-28.5
	c0.1-0.9-0.1-1.7-0.5-2.5c-0.4-0.5-0.9-1-1.5-1.3c-6.4-4.4-12.3-9.3-17.7-14.9c-0.3-0.4-0.8-0.7-1.3-0.8c-0.4,0-0.8,0.1-1.2,0.3
	c-3.3,1.7-8.8,4-10.2,7.8C866,679.1,866.8,679.9,867.3,680.8z"/>
<path class="st2" d="M827.3,717.8c-7.2,3-15,4.1-22.8,5.1c-1,0.1-2.1,0.2-2.7-0.5c-0.5-0.7-0.6-1.6-0.2-2.3c0.4-0.7,1-1.3,1.7-1.8
	l5.2-4.3c-4.5-1-9.2-0.1-13.1,2.3c-1.2,0.6-2.2,1.7-2.6,3c-0.2,1.3,0.2,2.5,0.9,3.5c2.2,3.2,5.5,5.5,9.2,6.5c3.7,1,7.5,1.5,11.4,1.6
	l7,0.4c-0.5,0.8-0.3,1.9,0.5,2.5c0.8,0.6,1.7,0.9,2.6,1c2.9,0.4,5.8,0.5,8.7,0.1c0.7,0,1.4-0.3,2-0.7c0.5-0.5,0.6-1.3,0.1-1.8
	c0,0-0.1-0.1-0.1-0.1c0.9,0,1.6-0.6,1.9-1.4c0.3-0.8,0.4-1.7,0.3-2.5c-0.2-3.2-0.5-8-2.2-10.8S829.7,716.8,827.3,717.8z"/>
<path class="st2" d="M901.6,689.3c-2.3-1.7-4.8-3.1-7.4-4.1c-0.4-0.3-0.9-0.2-1.2,0.2c0,0.1-0.1,0.1-0.1,0.2
	c-4.7,6.4-8.4,13.5-10.9,21.1c-1.4,4.3-2.6,8.9-5.5,12.4c-0.4,0.5-1,0.9-1.5,0.7c-0.8-0.4-0.3-1.6-0.7-2.3c-0.5-0.9-1.9-0.5-2.8,0.1
	c-1.4,1.1-2.6,2.4-3.4,4c-0.5,0.7-0.7,1.6-0.6,2.5c0.3,1.1,1,2,2,2.5c3.7,2.2,8.4,0.6,12.3-1c1.1-0.4,2.1-0.9,3.1-1.5
	c2-1.4,3.1-3.8,5.1-5.1c1.1-0.6,2.1-1.2,3.1-1.9c1.8-1.7,2-4.5,3.3-6.6c2.2-3.6,7.3-4.6,9.2-8.4C907.7,697.4,905,692,901.6,689.3z"
	/>
<path class="st3" d="M845.8,489.5c7.9,5.9,11.2,16.4,10.8,26.2c-0.3,9.8-3.8,19.2-7.2,28.5c-4.9,13.2-9.8,26.4-14.7,39.5
	c0.5,1.4,0.9,3,1,4.5c0.3,1.5-0.1,3.2-1,4.4c-0.5,0.5-1,0.9-1.5,1.5c-1.4,1.6-1.5,4-1.3,6.1s0.7,4.3,0.2,6.4
	c-0.2,0.9-0.7,1.7-0.8,2.6c-0.2,0.9,0.1,1.9,0.7,2.5c1,0.8,3,0.5,3.3,1.8c13.4,11.6,24.7,25.5,33.3,41c3.2,5.8,6.5,12.3,12.6,15.1
	c-5.9,4.7-11.5,9.6-16.9,14.9c-8.5-7.4-12.7-18.2-19.6-27c-4.4-5.5-9.6-10.2-15.6-13.9c3.3,4.8,4.2,11.4,3.8,17.2
	c-0.3,2.9-0.7,5.8-1.3,8.7c-1.5,9.1-1.4,19,3.5,26.9c-5.2,2.7-11.3,4.7-17.1,3.9c-3.7-0.5-7-2.4-9.3-5.3c-1.7-19.4-6-38-10.8-56.9
	c-1.1-3.8-1.9-7.6-2.3-11.5c-0.7-8,1.4-16.9-0.8-24.3c-1.1-3.6-1.8-7.3-2-11.1c0-0.4,0-0.8,0-1.2c-0.1-2.7-0.4-5.4-0.9-8.1
	l-4.3-18.9c-1.9-8.3-3.7-16.9-1.7-25.1c-1-0.4-1.9-0.9-2.7-1.4c-1.6-0.9-1.4-3.4-0.6-5.1s1.7-3.7,0.9-5.3c-0.4-0.7-0.9-1.3-1.5-1.9
	c-1.1-1.5-1.3-3.4-1.4-5.2l-0.5-7.2c3,1.2,5.5,3.4,7.1,6.2c-3.9-6.1-2-14.8,0.9-21.5c1.1-4.2,4.8-7.1,9.2-7.3
	C813.2,486.5,832.8,479.7,845.8,489.5z"/>
<path class="st4" d="M838.5,530.6c0,0-7.9,5.3-7.9,9.2s-2,39.4-2,39.4v25c0,0,1.3,13.1,0,16.4s0,18.4,0,20.4s2-20.4,2-20.4v-23.7
	l2-53.9L838.5,530.6z"/>
<path class="st1" d="M794.6,348.4l-4.6-1.8c-9.4-3.8-18.8-7.5-27.8-11.9c-6.6-3.2-13.3-7-17.4-13c-1.3-2-2.3-4.1-3.7-6.1
	c-1.5-2.1-3.2-4.1-5-5.9l-12.3-13.1c-0.9,1.8,0.3,3.8,1.2,5.5c1,1.8,1.8,3.8,2.3,5.8c0.2,0.7,0.2,1.4-0.1,2c-0.4,0.5-1,0.9-1.7,1.2
	c-2.3,1.4-3.3,4.2-2.5,6.8c0.9,2.5,3,4.4,5.7,4.9c0.9,0.1,1.7,0.3,2.5,0.6c1.5,0.7,2.2,2.4,3.2,3.6c1.9,2.3,5,3.2,7.9,3.9
	c4.5,5.2,9.3,10.1,13.8,15.3c6.9,7.8,13.9,15.8,22.8,21.1c3.2,1.9,6.7,3.3,10.3,4.1C790.5,363.6,792.3,355.9,794.6,348.4z"/>
<path class="st5" d="M794.6,348.4l-4.6-1.8c-9.4-3.8-18.8-7.5-27.8-11.9c-6.6-3.2-13.3-7-17.4-13c-1.3-2-2.3-4.1-3.7-6.1
	c-1.5-2.1-3.2-4.1-5-5.9l-12.3-13.1c-0.9,1.8,0.3,3.8,1.2,5.5c1,1.8,1.8,3.8,2.3,5.8c0.2,0.7,0.2,1.4-0.1,2c-0.4,0.5-1,0.9-1.7,1.2
	c-2.3,1.4-3.3,4.2-2.5,6.8c0.9,2.5,3,4.4,5.7,4.9c0.9,0.1,1.7,0.3,2.5,0.6c1.5,0.7,2.2,2.4,3.2,3.6c1.9,2.3,5,3.2,7.9,3.9
	c4.5,5.2,9.3,10.1,13.8,15.3c6.9,7.8,13.9,15.8,22.8,21.1c3.2,1.9,6.7,3.3,10.3,4.1C790.5,363.6,792.3,355.9,794.6,348.4z"/>
<path class="st6" d="M786.2,374.5c-1.5-0.3-3.1-0.6-3.9-1.9c-0.5-1.1-0.7-2.3-0.4-3.5c0.8-7.5,2.5-15,5-22.1
	c2.2,4.1,6.6,6.5,10.8,8.7c3.7,2.1,7.6,3.8,11.6,5.3c-1-0.3-3.5,15.1-4.8,16c-1.7,1.2-5.9-0.4-7.9-0.8L786.2,374.5z"/>
<circle class="st1" cx="796.8" cy="349" r="21"/>
<path class="st7" d="M792.5,366.4c0,0,13.8,11.8,7.9,19.7s-9.2,13.1-1.3,13.8s34.2-13.1,34.2-13.1s-24.3-19.7-20.4-31.5
	S792.5,366.4,792.5,366.4z"/>
<path class="st6" d="M805.8,384.9c-6,1.4-10.7,6.1-12.1,12.1c-1.5,7.1,1.7,15-1.4,21.5c-1.5,3.1-4.2,5.4-6,8.3
	c-3.7,6.2-3.1,14.1,1.6,19.6c1.4,1.6,3.1,3.1,3.3,5.1c0,0.9-0.1,1.9-0.3,2.8c-0.2,2.2,0.9,4.3,1.4,6.5c0.5,1.8,0.5,3.9-0.5,5.4
	c-1,1.5-1.5,3.3-1.4,5.2c0.5,2.8-0.7,5.6-0.9,8.4c-0.1,1.2,0,2.4-0.1,3.7c-0.1,1.2-0.4,2.3-0.7,3.4l-1.8,6.5
	c9.5,4.1,19.7,5.5,30,5.4c9.2-0.2,18.3-2.1,27.4-4c2.8-0.6,5.5-1.2,8.2-1.9c-5.7-7.5-6.3-17.4-6.5-26.8c-0.2-15.7-1.4-31.3-3.5-46.9
	c2.8-5.2,4-11.1,5.1-16.9c0.5-2.3,0.7-4.7,0.6-7.1c-0.3-5-2.6-9.8-4.8-14.3c-2.1-4.1-4.3-8.5-8.9-10.3c-2.3-0.9-4.8-0.7-6.8,0.8
	c-3.5,2.6-2.4,7.1-3.3,11c-1.2,5-5.8,8.6-10.7,10c-3.7,1-7.5,1.3-11.2,1c-1.1-0.1-1.9-1-1.9-2.1c0-0.4,0.2-0.8,0.5-1.2
	C802.8,388.4,804.4,386.6,805.8,384.9z"/>
<path class="st1" d="M822,466.1c-7.8,6.4-15.7,12.8-24.6,17.3c-5.3,2.6-10.9,4.6-16,7.4c-1.3,0.6-2.3,1.5-3,2.7
	c-0.4,1.2-0.5,2.5-0.2,3.8l2.3,15.7c0.6,4.3,4.7,7,8,9.7c-0.2-1.4-0.5-2.5,0.2-3.8c0.2-0.4,0.5-0.8,0.8-1.2c1.4-2.1,1.5-4.9,1.1-7.4
	c-0.3-2.5-1-5-0.9-7.6c-0.1-0.9,0.3-1.7,1.1-2.2c11.2-5.4,23.2-9.5,34.5-14.6c3-1.2,5.8-2.8,8.4-4.8c2.6-2,4.3-4.9,4.9-8.1
	c0.1-0.4,0-0.9-0.2-1.2c-0.2-0.2-0.5-0.4-0.8-0.5C832.4,469.6,827.1,467.9,822,466.1z"/>
<path class="st4" d="M800.4,400.2c-3.9,0.6-7.9,2.6-9.2,6.4c-0.5,1.6-0.6,3.3-0.5,5c-0.1,2.4,0.3,4.7,1.2,6.9
	c0.7,1.2,1.4,2.4,2.3,3.4c9.2,11.8,13.9,26.7,22.9,38.7c0.8,1.1,2.3,2.4,1.8,3.7c-0.2,0.3-0.3,0.7-0.4,1c-0.1,0.7,0.2,1.3,0.7,1.8
	c0.5,0.4,0.9,1,1.1,1.6c0.2,0.6-0.3,1.5-0.9,1.4c1.1,3.3,4.4,5.3,7.5,6.9c5.2,2.6,11,4.7,16.8,4.1c1.1-4.4,2.6-9.3,2-13.8
	c-0.6-3.4-1.8-6.7-3.3-9.8l-3.9-8.5c-3.3-7.3-6.7-14.6-11.3-21.2c-1.7-2.1-3.1-4.3-4.2-6.8c-1.2-3.1-4.5-5.3-6.4-7.9
	c-2.9-4-6-8-9.9-10.9C804.9,401,802.4,399.8,800.4,400.2z"/>
<path class="st6" d="M800.4,398.2c-3.9,0.6-7.9,2.6-9.2,6.3c-0.5,1.6-0.6,3.3-0.5,5c-0.1,2.4,0.3,4.7,1.2,6.9
	c0.7,1.2,1.4,2.4,2.3,3.4c9.2,11.8,13.9,26.7,22.9,38.7c0.8,1.1,2.3,2.4,1.8,3.7c-0.2,0.3-0.3,0.7-0.4,1c-0.1,0.7,0.2,1.3,0.7,1.8
	c0.5,0.4,0.9,1,1.1,1.6c0.2,0.6-0.3,1.5-0.9,1.4c1.1,3.3,4.4,5.3,7.5,6.9c5.2,2.6,11,4.7,16.8,4.1c1.1-4.4,2.6-9.3,2-13.8
	c-0.6-3.4-1.8-6.7-3.3-9.8l-3.9-8.5c-3.3-7.3-6.7-14.6-11.3-21.2c-1.7-2.1-3.1-4.3-4.2-6.8c-1.2-3.1-4.5-5.3-6.4-7.9
	c-2.9-4-6-8-9.9-10.9C804.9,399.1,802.4,397.9,800.4,398.2z"/>
<path class="st2" d="M791.6,314.4c-2.8,0.2-5.7,0.5-8.2,1.7s-4.7,3.6-4.8,6.4c0,1.6,0.6,3.3,0.4,4.9c-0.3,2.7-2.8,4.5-4.1,6.9
	c-2.2,4.1-0.5,9.4,2.4,13s6.8,6.4,9.8,10.1c4.8,5.9,6.7,13.5,5.4,20.9c-0.4,1.4-0.5,2.9-0.5,4.4c0.2,2.6,2,4.8,3.8,6.8
	c8.6,10,16.5,20.6,23.7,31.6c2.2,3.2,4.1,6.5,5.8,10c1.7,3.6,3,7.4,5.4,10.6c2.2,2.7,4.8,5,7.9,6.8c7.6,4.7,16.3,7.5,25.2,8.1
	l-5.2-12.8c-0.9-2.3-1.8-4.7-1.5-7.1c0.6-4.6,5.2-7.6,6.7-12c1-2.8,0.5-5.9-0.3-8.8c-1.8-6.5-5.5-12.3-7.4-18.7
	c-1.7-5.6-2.1-11.6-1.1-17.4c0.4-2.6,1.1-5.1,0.8-7.7c-1-7.8-10.1-11.6-14.4-18.2c-2.7-4.3-3.3-9.5-4.2-14.5
	c-1.3-7.3-3.7-14.5-8.3-20.3s-11.6-10-19-9.7c-3.9,0.1-7.7,1.5-11.4,2.9l-9.6,3.5"/>
<g class="st8">
	<path d="M834.7,330.8c0.8,4.5,1.3,9.2,3.5,13.2c-0.3-1.6-0.5-3.1-0.8-4.7c-0.7-3.9-1.8-7.8-3.2-11.5
		C834.3,328.8,834.5,329.8,834.7,330.8z"/>
	<path d="M852.4,371.2c-1,5.8-0.6,11.8,1.1,17.4c0.5,1.5,1,3,1.6,4.5c-0.8-4.4-0.9-8.9-0.1-13.4c0.4-2.6,1.1-5.1,0.8-7.7
		c-0.3-2.2-1.2-4.3-2.6-6C853.1,367.7,852.7,369.4,852.4,371.2z"/>
	<path d="M863.6,415.8c-0.6-1.9-1.2-3.7-2-5.5c0.3,1.9,0.2,3.9-0.4,5.8c-1.5,4.4-6.2,7.4-6.7,12c-0.3,2.4,0.6,4.8,1.5,7.1
		c0.3,0.8,0.7,1.7,1,2.6c0-0.4,0-0.7,0-1.1c0.6-4.6,5.2-7.6,6.7-12C864.8,421.8,864.4,418.7,863.6,415.8z"/>
	<path d="M836,439.8c-3-1.7-5.7-4-7.9-6.8c-2.4-3.2-3.7-7-5.4-10.6c-1.7-3.5-3.7-6.8-5.8-10c-7.2-11-15.2-21.6-23.7-31.6
		c-0.3-0.4-0.6-0.7-0.9-1.1c-0.2,0.9-0.3,1.9-0.2,2.8c0.2,2.6,2,4.8,3.8,6.8c8.6,10,16.5,20.6,23.7,31.6c2.2,3.2,4.1,6.5,5.8,10
		c1.7,3.6,3,7.4,5.4,10.6c2.2,2.7,4.8,5,7.9,6.8c7.6,4.7,16.3,7.5,25.2,8.1l-3.5-8.6C851.7,447.1,843.4,444.4,836,439.8z"/>
	<path d="M784.5,348.9c-3-3.6-6.9-6.4-9.8-10c-0.3-0.3-0.5-0.7-0.8-1.1c-0.1,3.5,1.1,6.9,3.4,9.6c2.9,3.7,6.8,6.4,9.8,10.1
		c1.2,1.4,2.2,2.9,3,4.6C789.6,357.2,787.6,352.6,784.5,348.9z"/>
</g>
<linearGradient id="SVGID_2_" gradientUnits="userSpaceOnUse" x1="975.6447" y1="339.6128" x2="1005.8646" y2="339.6128" gradientTransform="matrix(1.030685e-02 -0.9999 0.9999 1.030685e-02 245.9509 1160.3016)">
	<stop  offset="0" style="stop-color:#2483C5"/>
	<stop  offset="1" style="stop-color:#2483C5;stop-opacity:0"/>
</linearGradient>
<path class="st9" d="M602.4,186.4c8-3.9,11.5-13.1,7.8-20.4s-13-10.1-21-6.1s-11.5,13.1-7.8,20.4S594.4,190.3,602.4,186.4z"/>
<path class="st10" d="M477.3,367.8"/>
<linearGradient id="SVGID_3_" gradientUnits="userSpaceOnUse" x1="878.0706" y1="169.5607" x2="943.5814" y2="169.5607" gradientTransform="matrix(1.030685e-02 -0.9999 0.9999 1.030685e-02 245.9509 1160.3016)">
	<stop  offset="0" style="stop-color:#2483C5"/>
	<stop  offset="1" style="stop-color:#2483C5;stop-opacity:0"/>
</linearGradient>
<path class="st11" d="M425.9,284c0,0-67.7-5.4-70.6-9.6c-6.5-9.4,108.2-75.8,139.6-49.1C496.6,226.8,425.9,284,425.9,284z"/>
<linearGradient id="SVGID_4_" gradientUnits="userSpaceOnUse" x1="811.9841" y1="288.6358" x2="1049.9207" y2="288.6358" gradientTransform="matrix(1.030685e-02 -0.9999 0.9999 1.030685e-02 245.9509 1160.3016)">
	<stop  offset="0" style="stop-color:#FFAD4A"/>
	<stop  offset="1" style="stop-color:#2483C5;stop-opacity:0"/>
</linearGradient>
<path class="st12" d="M464.1,150.9c-22.9,22.4-35.8,50.8-38.6,79.3c27.7-10.7,56-16.2,69.4-4.8c1.5,1.3-47.1,41-63.6,54.4
	c5.1,14.4,13.2,27.8,24.4,39.2c44.1,45,119.4,42.8,168.2-5c48.8-47.8,52.6-123,8.5-168C588.1,100.8,512.9,103.1,464.1,150.9z"/>
<g>
	
		<linearGradient id="SVGID_5_" gradientUnits="userSpaceOnUse" x1="856.0792" y1="270.7214" x2="961.2814" y2="270.7214" gradientTransform="matrix(1.030685e-02 -0.9999 0.9999 1.030685e-02 245.9509 1160.3016)">
		<stop  offset="0" style="stop-color:#2483C5"/>
		<stop  offset="1" style="stop-color:#2483C5;stop-opacity:0"/>
	</linearGradient>
	<path class="st13" d="M474.4,306.5c14.3-10.8,29.5-23.4,45-38.2c24-22.8,43.2-45.5,58.3-66"/>
	<path class="st14" d="M474.3,306.4c9.7-7.6,19.1-15.4,28.2-23.6c9.1-8.2,18-16.7,26.5-25.5c4.3-4.4,8.4-8.9,12.5-13.5
		c4.1-4.5,8.1-9.1,12.2-13.7c8.1-9.2,16-18.5,24-27.8l0.2,0.2c-6.7,10.3-14.1,20.2-22,29.6c-7.9,9.5-16.5,18.3-25.2,26.9
		c-8.8,8.6-17.8,16.9-27.2,24.9c-9.4,7.9-19,15.5-29,22.8L474.3,306.4z"/>
</g>
<g>
	
		<linearGradient id="SVGID_6_" gradientUnits="userSpaceOnUse" x1="969.0082" y1="251.4046" x2="1001.1903" y2="251.4046" gradientTransform="matrix(1.030685e-02 -0.9999 0.9999 1.030685e-02 245.9509 1160.3016)">
		<stop  offset="0" style="stop-color:#2483C5"/>
		<stop  offset="1" style="stop-color:#2483C5;stop-opacity:0"/>
	</linearGradient>
	<path class="st15" d="M454.7,193.4c10.2-8.7,33-25.7,66.3-30.2c15.7-2.1,29.2-0.8,39.2,1"/>
	<path class="st14" d="M454.7,193.3c7.1-6.2,14.8-11.8,23.1-16.4c4.1-2.3,8.4-4.4,12.8-6.2c2.2-1,4.4-1.7,6.6-2.6
		c1.1-0.4,2.3-0.8,3.4-1.1c1.1-0.4,2.2-0.8,3.4-1.1c2.3-0.6,4.6-1.3,6.9-1.8l3.5-0.8c1.2-0.2,2.3-0.4,3.5-0.6
		c4.7-0.9,9.4-1.3,14.2-1.5c9.5-0.2,19.1,0.6,28.2,2.9l0,0.2c-9.4-1.1-18.8-1.7-28.1-1.1c-2.3,0.1-4.7,0.3-7,0.6
		c-1.2,0.1-2.3,0.3-3.5,0.4c-1.2,0.1-2.3,0.3-3.5,0.5c-1.2,0.2-2.3,0.3-3.5,0.5l-3.4,0.7c-2.3,0.4-4.6,1.1-6.8,1.6
		c-1.1,0.3-2.2,0.7-3.4,1c-1.1,0.4-2.3,0.6-3.4,1c-2.2,0.8-4.4,1.5-6.6,2.4c-4.4,1.7-8.6,3.7-12.8,5.9c-8.3,4.4-16.2,9.7-23.4,15.7
		L454.7,193.3z"/>
</g>
<ellipse id="Portal_1_" transform="matrix(1.030685e-02 -0.9999 0.9999 1.030685e-02 -82.5041 754.8126)" class="st16" cx="340.1" cy="419.1" rx="149.4" ry="149.8"/>
<ellipse id="Portal_2_" transform="matrix(1.030685e-02 -0.9999 0.9999 1.030685e-02 -185.8842 753.0726)" class="st17" cx="287.5" cy="470.4" rx="97.5" ry="97.7"/>
<ellipse id="Portal_3_" transform="matrix(1.030685e-02 -0.9999 0.9999 1.030685e-02 -227.3255 752.3752)" class="st18" cx="266.4" cy="491" rx="76.7" ry="76.9"/>
<g class="st19">
	<path class="st14" d="M251.7,467.4c10.4,4.4,21.3,7.5,32.4,8.6c5.6,0.6,11.1,0.7,16.7,0.3c2.8-0.2,5.5-0.5,8.3-1
		c1.4-0.2,2.7-0.6,4-0.9l2-0.6c0.7-0.2,1.3-0.4,1.9-0.7c5.1-1.9,9.8-4.7,13.9-8.4c4.1-3.6,7.7-7.8,11-12.3
		c6.6-8.9,12.2-18.7,18-28.3c5.7-9.7,11.6-19.4,17.7-28.9c3.1-4.7,6.3-9.4,9.6-14c3.3-4.6,6.8-9.1,10.4-13.5
		c1.8-2.2,3.7-4.3,5.5-6.5c1.9-2.1,3.7-4.3,5.6-6.4c3.8-4.2,7.7-8.3,11.7-12.3c8-8,16.3-15.7,25.1-22.8l0.4,0.4
		c-15.2,16.7-30,33.6-43.6,51.4c-13.6,17.8-26.4,36.1-38.4,55.3c-6.1,9.5-12,19.2-19,28.2c-3.5,4.5-7.4,8.8-11.9,12.5
		c-4.4,3.8-9.6,6.7-15.1,8.6c-0.7,0.3-1.4,0.4-2.1,0.6l-2.1,0.6c-1.4,0.3-2.9,0.6-4.3,0.8c-2.8,0.4-5.7,0.6-8.5,0.7
		c-5.7,0.2-11.4-0.1-17.1-0.9c-5.6-0.8-11.2-2.1-16.6-3.7c-5.4-1.7-10.7-3.8-15.8-6.2L251.7,467.4z"/>
</g>
<linearGradient id="SVGID_7_" gradientUnits="userSpaceOnUse" x1="1047.3302" y1="298.9984" x2="1087.7291" y2="298.9984" gradientTransform="matrix(1.030685e-02 -0.9999 0.9999 1.030685e-02 245.9509 1160.3016)">
	<stop  offset="0" style="stop-color:#2483C5"/>
	<stop  offset="1" style="stop-color:#2483C5;stop-opacity:0"/>
</linearGradient>
<path class="st20" d="M552.4,75.7c-7.6,0.8-21.3,30.4-19.9,39.6c15.6-2.7,31.4-2.4,46.5,1C573.1,98.8,563,74.6,552.4,75.7z"/>
<linearGradient id="SVGID_8_" gradientUnits="userSpaceOnUse" x1="895.3666" y1="410.8497" x2="932.3013" y2="410.8497" gradientTransform="matrix(1.030685e-02 -0.9999 0.9999 1.030685e-02 245.9509 1160.3016)">
	<stop  offset="0" style="stop-color:#2483C5"/>
	<stop  offset="1" style="stop-color:#2483C5;stop-opacity:0"/>
</linearGradient>
<path class="st21" d="M653.9,269.1c13.3-5.7,23.5-12.7,24.4-20.7c1.3-13-9.9-15.6-15.7-16.1C661.6,244.7,658.7,257.1,653.9,269.1z"
	/>
<path class="st22" d="M191,350c-1.2,119.8,95.2,217.9,215.3,219.2c120.1,1.2,218.5-94.9,219.8-214.7c0.1-13.5-1-26.7-3.3-39.6
	c-48.8,46.8-123.3,48.8-167.2,4c-11.2-11.4-19.3-24.8-24.4-39.2c-3.3,2.7-5.4,4.4-5.4,4.4s-67.7-5.4-70.6-9.6
	c-3.7-5.4,32.7-29.7,70.2-44.2c2.8-28.5,15.8-56.9,38.6-79.3c2.3-2.2,4.6-4.3,7-6.4c-19.1-5.7-39.4-9-60.4-9.2
	C290.6,134,192.2,230.2,191,350z"/>
<linearGradient id="SVGID_9_" gradientUnits="userSpaceOnUse" x1="736.589" y1="300.3725" x2="884.1011" y2="300.3725" gradientTransform="matrix(1.030685e-02 -0.9999 0.9999 1.030685e-02 245.9509 1160.3016)">
	<stop  offset="0" style="stop-color:#2483C5"/>
	<stop  offset="1" style="stop-color:#2483C5;stop-opacity:0"/>
</linearGradient>
<path class="st23" d="M529.1,358.8c0,0-8.6,66.5-2.5,67.7c11.9,2.3,85.7-150.8,47.3-146.9C571.2,279.9,529.1,358.8,529.1,358.8z"/>
</svg>
